<svg width="68" height="68" viewBox="0 0 68 68" fill="none" xmlns="http://www.w3.org/2000/svg">
<rect x="1.25" y="1.25" width="65.5" height="65.5" rx="32.75" fill="#77A5B9"/>
<rect x="1.25" y="1.25" width="65.5" height="65.5" rx="32.75" stroke="white" stroke-width="1.5"/>
<path fill-rule="evenodd" clip-rule="evenodd" d="M32.3842 20.6167C32.6183 20.851 32.7498 21.1687 32.7498 21.5C32.7498 21.8312 32.6183 22.149 32.3842 22.3833L22.0175 32.75H49.0009C49.3324 32.75 49.6503 32.8817 49.8847 33.1161C50.1192 33.3505 50.2509 33.6685 50.2509 34C50.2509 34.3315 50.1192 34.6495 49.8847 34.8839C49.6503 35.1183 49.3324 35.25 49.0009 35.25H22.0175L32.3842 45.6167C32.507 45.7311 32.6055 45.8691 32.6738 46.0224C32.7421 46.1758 32.7789 46.3413 32.7818 46.5091C32.7848 46.677 32.7539 46.8437 32.6911 46.9993C32.6282 47.155 32.5346 47.2964 32.4159 47.4151C32.2972 47.5338 32.1558 47.6273 32.0002 47.6902C31.8445 47.7531 31.6778 47.7839 31.51 47.781C31.3421 47.778 31.1766 47.7413 31.0233 47.673C30.87 47.6046 30.732 47.5061 30.6175 47.3833L18.1175 34.8833C17.8834 34.649 17.752 34.3312 17.752 34C17.752 33.6687 17.8834 33.351 18.1175 33.1167L30.6175 20.6167C30.8519 20.3826 31.1696 20.2511 31.5009 20.2511C31.8321 20.2511 32.1498 20.3826 32.3842 20.6167Z" fill="white"/>
</svg>
