<svg width="226" height="42" viewBox="0 0 226 42" fill="none" xmlns="http://www.w3.org/2000/svg">
<rect x="1" y="0.517578" width="37.9648" height="37.9648" rx="8" fill="url(#paint0_linear_12865_5065)"/>
<g filter="url(#filter0_d_12865_5065)">
<path d="M13.4961 31.2658V27.4816C13.4961 25.902 14.2941 24.4671 15.4008 23.34C16.0382 22.6909 16.6158 21.969 17.3503 20.9766C17.8938 25.1714 17.9109 27.5481 17.9031 31.2667C17.902 31.8182 17.4544 32.2658 16.903 32.2658H14.4961C13.9438 32.2658 13.4961 31.8181 13.4961 31.2658Z" fill="white"/>
<path d="M13.6758 8.00584V6.56055C14.5775 6.87401 15.9836 6.82006 18.4476 6.73423C20.6832 6.64628 22.2863 6.65463 23.5505 6.7087C25.2788 6.78263 27.023 7.19361 28.4042 8.23526C29.8514 9.32667 30.7732 10.7132 31.0074 12.8117C31.3163 15.5796 30.5259 18.6566 28.2966 20.326C26.7354 21.4949 24.4941 22.0026 20.8359 22.1644C20.3991 22.1837 19.9944 21.912 19.8862 21.4883C19.6078 20.397 19.6556 19.5533 19.7301 18.2381L19.7324 18.1971C21.0505 18.2059 21.6267 18.1409 22.6392 18.0268L22.6689 18.0235C24.9161 17.8704 26.0517 17.3399 26.4916 15.7797C26.9653 14.0993 26.6177 12.0267 25.1335 11.1072C23.7508 10.2506 21.6263 10.2434 18.4476 10.3815C17.2465 10.5972 16.3648 10.6352 15.6282 10.5571C14.4097 10.4278 13.6758 9.23116 13.6758 8.00584Z" fill="white"/>
<path d="M27.2572 25.1444C26.3083 23.1778 24.3802 22.9646 20.4665 22.8865C22.1006 24.832 22.7984 25.7211 23.403 26.7075C24.5443 28.789 25.3525 30.1582 26.0927 31.0795C26.9397 32.1337 28.3336 32.4389 29.6859 32.4389H32.0291C30.4332 30.8009 29.8925 30.1366 29.4596 29.3127C28.6724 28.0106 28.1859 27.0787 27.2572 25.1444Z" fill="white"/>
<path d="M15.8988 16.0267C15.0834 15.2621 14.6029 14.9396 14.0426 14.6766C13.8256 13.8938 13.888 13.0625 14.2262 11.0293C16.02 11.4331 16.7067 11.3605 17.7133 11.0293C18.0685 12.15 18.1962 14.2997 17.9452 15.7664C17.7601 16.8483 16.6995 16.7775 15.8988 16.0267Z" fill="white"/>
<path d="M10.9262 22.8879C7.53802 22.5496 6.81088 20.8467 6.1543 16.9828L9.64143 17.1565V12.8145L12.578 14.5513C14.6952 15.847 15.5145 16.8091 15.5145 18.8933C15.1474 22.0195 14.089 22.8443 10.9262 22.8879Z" fill="white"/>
<path d="M12.0245 19.7601C10.8059 19.4877 10.2699 19.2429 9.45508 18.718C9.90445 19.5708 10.3313 20.1073 10.9074 20.5896C11.6201 21.1863 12.8127 21.0522 12.9668 20.1356C12.9938 19.9753 13.0077 19.8023 13.0103 19.6118C13.0199 18.9006 12.8619 18.1871 12.5279 17.5592C12.1391 16.8282 11.6215 16.3034 10.7398 15.5918C10.7341 15.6427 10.7289 15.6922 10.7242 15.7407C10.5878 17.1646 11.7688 18.3528 12.0245 19.7601Z" fill="black"/>
</g>
<path d="M57.2773 7.25H65.3242C67.0534 7.25 68.5273 7.51042 69.7461 8.03125C70.9648 8.55208 71.8971 9.32292 72.543 10.3438C73.1992 11.3542 73.5273 12.6042 73.5273 14.0938C73.5273 15.2292 73.319 16.2292 72.9023 17.0938C72.4857 17.9583 71.8971 18.6875 71.1367 19.2812C70.3763 19.8646 69.4701 20.3177 68.418 20.6406L67.2305 21.2188H59.9961L59.9648 18.1094H65.3867C66.3242 18.1094 67.1055 17.9427 67.7305 17.6094C68.3555 17.276 68.8242 16.8229 69.1367 16.25C69.4596 15.6667 69.6211 15.0104 69.6211 14.2812C69.6211 13.4896 69.4648 12.8021 69.1523 12.2188C68.8503 11.625 68.3815 11.1719 67.7461 10.8594C67.1107 10.5365 66.3034 10.375 65.3242 10.375H61.1992V30H57.2773V7.25ZM70.2617 30L64.918 19.7812L69.0273 19.7656L74.4492 29.7969V30H70.2617ZM81.0898 13.0938V30H77.3086V13.0938H81.0898ZM77.0586 8.65625C77.0586 8.08333 77.2461 7.60938 77.6211 7.23438C78.0065 6.84896 78.5378 6.65625 79.2148 6.65625C79.8815 6.65625 80.4076 6.84896 80.793 7.23438C81.1784 7.60938 81.3711 8.08333 81.3711 8.65625C81.3711 9.21875 81.1784 9.6875 80.793 10.0625C80.4076 10.4375 79.8815 10.625 79.2148 10.625C78.5378 10.625 78.0065 10.4375 77.6211 10.0625C77.2461 9.6875 77.0586 9.21875 77.0586 8.65625ZM96.043 13.0938H99.4648V29.5312C99.4648 31.0521 99.1419 32.3438 98.4961 33.4062C97.8503 34.4688 96.9492 35.276 95.793 35.8281C94.6367 36.3906 93.2982 36.6719 91.7773 36.6719C91.1315 36.6719 90.4128 36.5781 89.6211 36.3906C88.8398 36.2031 88.0794 35.901 87.3398 35.4844C86.6107 35.0781 86.0013 34.5417 85.5117 33.875L87.2773 31.6562C87.8815 32.375 88.5482 32.901 89.2773 33.2344C90.0065 33.5677 90.7721 33.7344 91.5742 33.7344C92.4388 33.7344 93.1732 33.5729 93.7773 33.25C94.3919 32.9375 94.8659 32.474 95.1992 31.8594C95.5326 31.2448 95.6992 30.4948 95.6992 29.6094V16.9219L96.043 13.0938ZM84.5586 21.7344V21.4062C84.5586 20.125 84.7148 18.9583 85.0273 17.9062C85.3398 16.8438 85.7878 15.9323 86.3711 15.1719C86.9544 14.401 87.6628 13.8125 88.4961 13.4062C89.3294 12.9896 90.2721 12.7812 91.3242 12.7812C92.418 12.7812 93.3503 12.9792 94.1211 13.375C94.9023 13.7708 95.5534 14.3385 96.0742 15.0781C96.5951 15.8073 97.0013 16.6823 97.293 17.7031C97.5951 18.7135 97.819 19.8385 97.9648 21.0781V22.125C97.8294 23.3333 97.6003 24.4375 97.2773 25.4375C96.9544 26.4375 96.5273 27.3021 95.9961 28.0312C95.4648 28.7604 94.8086 29.3229 94.0273 29.7188C93.2565 30.1146 92.3451 30.3125 91.293 30.3125C90.2617 30.3125 89.3294 30.099 88.4961 29.6719C87.6732 29.2448 86.9648 28.6458 86.3711 27.875C85.7878 27.1042 85.3398 26.1979 85.0273 25.1562C84.7148 24.1042 84.5586 22.9635 84.5586 21.7344ZM88.3242 21.4062V21.7344C88.3242 22.5052 88.3971 23.224 88.543 23.8906C88.6992 24.5573 88.9336 25.1458 89.2461 25.6562C89.569 26.1562 89.9753 26.5521 90.4648 26.8438C90.9648 27.125 91.5534 27.2656 92.2305 27.2656C93.1159 27.2656 93.8398 27.0781 94.4023 26.7031C94.9753 26.3281 95.4128 25.8229 95.7148 25.1875C96.0273 24.5417 96.2461 23.8229 96.3711 23.0312V20.2031C96.3086 19.5885 96.1784 19.0156 95.9805 18.4844C95.793 17.9531 95.5378 17.4896 95.2148 17.0938C94.8919 16.6875 94.4857 16.375 93.9961 16.1562C93.5065 15.9271 92.9284 15.8125 92.2617 15.8125C91.5846 15.8125 90.9961 15.9583 90.4961 16.25C89.9961 16.5417 89.5846 16.9427 89.2617 17.4531C88.9492 17.9635 88.7148 18.5573 88.5586 19.2344C88.4023 19.9115 88.3242 20.6354 88.3242 21.4062ZM107.09 6V30H103.34V6H107.09ZM106.434 20.9219L105.215 20.9062C105.225 19.7396 105.387 18.6615 105.699 17.6719C106.022 16.6823 106.47 15.8229 107.043 15.0938C107.626 14.3542 108.324 13.7865 109.137 13.3906C109.949 12.9844 110.85 12.7812 111.84 12.7812C112.673 12.7812 113.423 12.8958 114.09 13.125C114.767 13.3542 115.35 13.724 115.84 14.2344C116.329 14.7344 116.699 15.3906 116.949 16.2031C117.21 17.0052 117.34 17.9844 117.34 19.1406V30H113.559V19.1094C113.559 18.2969 113.439 17.651 113.199 17.1719C112.97 16.6927 112.632 16.349 112.184 16.1406C111.736 15.9219 111.189 15.8125 110.543 15.8125C109.866 15.8125 109.267 15.9479 108.746 16.2188C108.236 16.4896 107.809 16.8594 107.465 17.3281C107.121 17.7969 106.861 18.3385 106.684 18.9531C106.517 19.5677 106.434 20.224 106.434 20.9219ZM128.902 13.0938V15.8438H119.371V13.0938H128.902ZM122.121 8.95312H125.887V25.3281C125.887 25.849 125.96 26.25 126.105 26.5312C126.262 26.8021 126.475 26.9844 126.746 27.0781C127.017 27.1719 127.335 27.2188 127.699 27.2188C127.96 27.2188 128.21 27.2031 128.449 27.1719C128.689 27.1406 128.882 27.1094 129.027 27.0781L129.043 29.9531C128.73 30.0469 128.366 30.1302 127.949 30.2031C127.543 30.276 127.074 30.3125 126.543 30.3125C125.678 30.3125 124.913 30.1615 124.246 29.8594C123.579 29.5469 123.059 29.0417 122.684 28.3438C122.309 27.6458 122.121 26.7188 122.121 25.5625V8.95312ZM144.34 7.25V30H140.418V7.25H144.34ZM152.574 16.7031V30H148.809V13.0938H152.355L152.574 16.7031ZM151.902 20.9219L150.684 20.9062C150.694 19.7083 150.861 18.6094 151.184 17.6094C151.517 16.6094 151.975 15.75 152.559 15.0312C153.152 14.3125 153.861 13.7604 154.684 13.375C155.507 12.9792 156.423 12.7812 157.434 12.7812C158.246 12.7812 158.98 12.8958 159.637 13.125C160.303 13.3438 160.871 13.7031 161.34 14.2031C161.819 14.7031 162.184 15.3542 162.434 16.1562C162.684 16.9479 162.809 17.9219 162.809 19.0781V30H159.027V19.0625C159.027 18.25 158.908 17.6094 158.668 17.1406C158.439 16.6615 158.1 16.3229 157.652 16.125C157.215 15.9167 156.668 15.8125 156.012 15.8125C155.366 15.8125 154.788 15.9479 154.277 16.2188C153.767 16.4896 153.335 16.8594 152.98 17.3281C152.637 17.7969 152.371 18.3385 152.184 18.9531C151.996 19.5677 151.902 20.224 151.902 20.9219ZM174.402 13.0938V15.8438H164.871V13.0938H174.402ZM167.621 8.95312H171.387V25.3281C171.387 25.849 171.46 26.25 171.605 26.5312C171.762 26.8021 171.975 26.9844 172.246 27.0781C172.517 27.1719 172.835 27.2188 173.199 27.2188C173.46 27.2188 173.71 27.2031 173.949 27.1719C174.189 27.1406 174.382 27.1094 174.527 27.0781L174.543 29.9531C174.23 30.0469 173.866 30.1302 173.449 30.2031C173.043 30.276 172.574 30.3125 172.043 30.3125C171.178 30.3125 170.413 30.1615 169.746 29.8594C169.079 29.5469 168.559 29.0417 168.184 28.3438C167.809 27.6458 167.621 26.7188 167.621 25.5625V8.95312ZM186.84 26.6094V18.5469C186.84 17.9427 186.73 17.4219 186.512 16.9844C186.293 16.5469 185.96 16.2083 185.512 15.9688C185.074 15.7292 184.522 15.6094 183.855 15.6094C183.241 15.6094 182.71 15.7135 182.262 15.9219C181.814 16.1302 181.465 16.4115 181.215 16.7656C180.965 17.1198 180.84 17.5208 180.84 17.9688H177.09C177.09 17.3021 177.251 16.6562 177.574 16.0312C177.897 15.4062 178.366 14.849 178.98 14.3594C179.595 13.8698 180.329 13.4844 181.184 13.2031C182.038 12.9219 182.996 12.7812 184.059 12.7812C185.329 12.7812 186.454 12.9948 187.434 13.4219C188.423 13.849 189.199 14.4948 189.762 15.3594C190.335 16.2135 190.621 17.2865 190.621 18.5781V26.0938C190.621 26.8646 190.673 27.5573 190.777 28.1719C190.892 28.776 191.053 29.3021 191.262 29.75V30H187.402C187.225 29.5938 187.085 29.0781 186.98 28.4531C186.887 27.8177 186.84 27.2031 186.84 26.6094ZM187.387 19.7188L187.418 22.0469H184.715C184.017 22.0469 183.402 22.1146 182.871 22.25C182.34 22.375 181.897 22.5625 181.543 22.8125C181.189 23.0625 180.923 23.3646 180.746 23.7188C180.569 24.0729 180.48 24.474 180.48 24.9219C180.48 25.3698 180.585 25.7812 180.793 26.1562C181.001 26.5208 181.303 26.8073 181.699 27.0156C182.105 27.224 182.595 27.3281 183.168 27.3281C183.939 27.3281 184.611 27.1719 185.184 26.8594C185.767 26.5365 186.225 26.1458 186.559 25.6875C186.892 25.2188 187.069 24.776 187.09 24.3594L188.309 26.0312C188.184 26.4583 187.97 26.9167 187.668 27.4062C187.366 27.8958 186.97 28.3646 186.48 28.8125C186.001 29.25 185.423 29.6094 184.746 29.8906C184.079 30.1719 183.309 30.3125 182.434 30.3125C181.329 30.3125 180.345 30.0938 179.48 29.6562C178.616 29.2083 177.939 28.6094 177.449 27.8594C176.96 27.099 176.715 26.2396 176.715 25.2812C176.715 24.3854 176.882 23.5938 177.215 22.9062C177.559 22.2083 178.059 21.625 178.715 21.1562C179.382 20.6875 180.194 20.3333 181.152 20.0938C182.111 19.8438 183.204 19.7188 184.434 19.7188H187.387ZM198.355 6V30H194.574V6H198.355ZM208.855 13.0938L201.496 21.25L197.465 25.375L196.48 22.1875L199.527 18.4219L204.309 13.0938H208.855ZM205.121 30L199.637 22.0625L202.012 19.4219L209.48 30H205.121ZM218.387 30.3125C217.137 30.3125 216.007 30.1094 214.996 29.7031C213.996 29.2865 213.142 28.7083 212.434 27.9688C211.736 27.2292 211.199 26.3594 210.824 25.3594C210.449 24.3594 210.262 23.2812 210.262 22.125V21.5C210.262 20.1771 210.454 18.9792 210.84 17.9062C211.225 16.8333 211.762 15.9167 212.449 15.1562C213.137 14.3854 213.949 13.7969 214.887 13.3906C215.824 12.9844 216.84 12.7812 217.934 12.7812C219.142 12.7812 220.199 12.9844 221.105 13.3906C222.012 13.7969 222.762 14.3698 223.355 15.1094C223.96 15.8385 224.408 16.7083 224.699 17.7188C225.001 18.7292 225.152 19.8438 225.152 21.0625V22.6719H212.09V19.9688H221.434V19.6719C221.413 18.9948 221.277 18.3594 221.027 17.7656C220.788 17.1719 220.418 16.6927 219.918 16.3281C219.418 15.9635 218.751 15.7812 217.918 15.7812C217.293 15.7812 216.736 15.9167 216.246 16.1875C215.767 16.4479 215.366 16.8281 215.043 17.3281C214.72 17.8281 214.47 18.4323 214.293 19.1406C214.126 19.8385 214.043 20.625 214.043 21.5V22.125C214.043 22.8646 214.142 23.5521 214.34 24.1875C214.548 24.8125 214.85 25.3594 215.246 25.8281C215.642 26.2969 216.121 26.6667 216.684 26.9375C217.246 27.1979 217.887 27.3281 218.605 27.3281C219.512 27.3281 220.319 27.1458 221.027 26.7812C221.736 26.4167 222.35 25.901 222.871 25.2344L224.855 27.1562C224.491 27.6875 224.017 28.1979 223.434 28.6875C222.85 29.1667 222.137 29.5573 221.293 29.8594C220.46 30.1615 219.491 30.3125 218.387 30.3125Z" fill="#353535"/>
<defs>
<filter id="filter0_d_12865_5065" x="0.354297" y="1.76055" width="39.475" height="39.4789" filterUnits="userSpaceOnUse" color-interpolation-filters="sRGB">
<feFlood flood-opacity="0" result="BackgroundImageFix"/>
<feColorMatrix in="SourceAlpha" type="matrix" values="0 0 0 0 0 0 0 0 0 0 0 0 0 0 0 0 0 0 127 0" result="hardAlpha"/>
<feOffset dx="1" dy="2"/>
<feGaussianBlur stdDeviation="3.4"/>
<feComposite in2="hardAlpha" operator="out"/>
<feColorMatrix type="matrix" values="0 0 0 0 1 0 0 0 0 1 0 0 0 0 1 0 0 0 0.23 0"/>
<feBlend mode="normal" in2="BackgroundImageFix" result="effect1_dropShadow_12865_5065"/>
<feBlend mode="normal" in="SourceGraphic" in2="effect1_dropShadow_12865_5065" result="shape"/>
</filter>
<linearGradient id="paint0_linear_12865_5065" x1="35.4056" y1="1.88322" x2="9.521" y2="40.5152" gradientUnits="userSpaceOnUse">
<stop stop-color="#818181"/>
<stop offset="0.355" stop-color="#232323"/>
<stop offset="0.782725"/>
</linearGradient>
</defs>
</svg>
